<svg width="230" height="87" viewBox="0 0 230 87" fill="none" xmlns="http://www.w3.org/2000/svg">
<path d="M0.989141 86.441V83.769C3.23228 83.769 4.84867 83.6371 5.83829 83.3732C6.82791 83.1752 7.42168 82.6804 7.61961 81.8887C7.88351 81.097 8.01546 79.8765 8.01546 78.2271V28.4492C8.01546 26.7338 7.81753 25.6122 7.42168 25.0844C7.02584 24.5566 6.23414 24.2927 5.04659 24.2927H1.38499V21.6208L11.6771 19.8394H14.349V24.1938H14.547V78.2271C14.547 79.8765 14.6789 81.097 14.9428 81.8887C15.2067 82.6804 15.8335 83.1752 16.8231 83.3732C17.8127 83.6371 19.3961 83.769 21.5733 83.769V86.441H0.989141ZM27.7089 67.8361C24.4102 67.8361 21.6722 67.3413 19.4951 66.3517C17.3179 65.2961 15.5366 64.0426 14.1511 62.5911C12.7656 61.1397 11.6111 59.8202 10.6874 58.6326V53.8824C11.3472 55.136 12.1719 56.4225 13.1615 57.742C14.1511 59.0615 15.3057 60.315 16.6252 61.5025C17.9447 62.6241 19.4291 63.5477 21.0785 64.2735C22.7938 64.9332 24.6741 65.2631 26.7193 65.2631C30.7438 65.2631 33.8776 63.5807 36.1207 60.216C38.4298 56.8513 39.5844 51.2105 39.5844 43.2935C39.5844 36.828 38.6607 31.6489 36.8135 27.7564C34.9662 23.8639 31.7994 21.9176 27.3131 21.9176C24.7401 21.9176 22.398 22.4784 20.2868 23.6C18.2416 24.6556 16.4932 25.8431 15.0418 27.1626C13.6563 28.4821 12.6667 29.4388 12.0729 30.0325V26.4699C12.4688 26.0741 13.3264 25.2824 14.6459 24.0948C15.9654 22.9073 17.8127 21.8187 20.1878 20.8291C22.5629 19.7735 25.4988 19.2457 28.9954 19.2457C35.0651 19.2457 39.5844 21.2249 42.5533 25.1834C45.5881 29.1419 47.1055 34.9807 47.1055 42.6997C47.1055 48.7034 46.2479 53.5526 44.5325 57.2472C42.8831 60.9417 40.574 63.6467 37.6052 65.3621C34.7023 67.0114 31.4035 67.8361 27.7089 67.8361ZM51.7421 66.6486V63.9766C53.9852 63.9766 55.6016 63.8776 56.5912 63.6797C57.5808 63.4158 58.1746 62.888 58.3725 62.0963C58.6364 61.3046 58.7684 60.0841 58.7684 58.4347V28.4492C58.7684 26.7338 58.5704 25.6122 58.1746 25.0844C57.7787 24.5566 56.9871 24.2927 55.7995 24.2927H52.1379V21.6208L62.6279 19.8394H65.2999V58.4347C65.2999 60.0841 65.4318 61.3046 65.6957 62.0963C65.9596 62.888 66.5864 63.4158 67.576 63.6797C68.5656 63.8776 70.149 63.9766 72.3262 63.9766V66.6486H51.7421ZM61.8362 9.84426C60.3848 9.84426 59.1972 9.38244 58.2736 8.45879C57.4159 7.53514 56.9871 6.41357 56.9871 5.09407C56.9871 3.64263 57.4159 2.45508 58.2736 1.53143C59.1972 0.607787 60.3848 0.145964 61.8362 0.145964C62.8258 0.145964 63.6835 0.376876 64.4092 0.838702C65.1349 1.23455 65.6957 1.79534 66.0916 2.52106C66.4874 3.24678 66.6853 4.10445 66.6853 5.09407C66.6194 6.41357 66.1575 7.53514 65.2999 8.45879C64.4422 9.38244 63.2876 9.84426 61.8362 9.84426ZM105.087 66.6486V63.9766C107.33 63.9766 108.913 63.8776 109.837 63.6797C110.826 63.4158 111.453 62.888 111.717 62.0963C111.981 61.3046 112.113 60.0841 112.113 58.4347V34.2879C112.113 32.3747 111.816 30.5603 111.222 28.845C110.694 27.1297 109.738 25.7442 108.352 24.6886C106.967 23.567 105.021 23.0062 102.514 23.0062C99.0828 23.0062 96.3779 24.0288 94.3986 26.0741C92.4194 28.0533 90.5721 30.4284 88.8567 33.1993V28.944C90.1762 26.8328 91.5617 25.0515 93.0132 23.6C94.5306 22.1486 96.2459 21.06 98.1592 20.3343C100.138 19.6085 102.481 19.2457 105.186 19.2457C109.87 19.2457 113.267 20.4002 115.379 22.7093C117.556 24.9525 118.644 28.5151 118.644 33.3973V58.4347C118.644 60.0841 118.743 61.3046 118.941 62.0963C119.205 62.888 119.832 63.4158 120.822 63.6797C121.811 63.8776 123.428 63.9766 125.671 63.9766V66.6486H105.087ZM76.3875 66.6486V63.9766C78.6307 63.9766 80.247 63.8776 81.2367 63.6797C82.2263 63.4158 82.82 62.888 83.018 62.0963C83.2819 61.3046 83.4138 60.0841 83.4138 58.4347V28.4492C83.4138 26.7338 83.2159 25.6122 82.8201 25.0844C82.4242 24.5566 81.6325 24.2927 80.445 24.2927H76.7834V21.6208L86.9765 19.8394H89.6484V27.5585H89.9453V58.4347C89.9453 60.0841 90.0773 61.3046 90.3412 62.0963C90.6051 62.888 91.2318 63.4158 92.2215 63.6797C93.2111 63.8776 94.7945 63.9766 96.9716 63.9766V66.6486H76.3875ZM148.907 67.8361C141.584 67.8361 136.273 65.6919 132.975 61.4036C129.742 57.1152 128.125 51.3754 128.125 44.1841C128.125 39.236 128.884 34.8817 130.402 31.1211C131.919 27.3606 134.228 24.4577 137.329 22.4125C140.43 20.3013 144.355 19.2457 149.105 19.2457C153.394 19.2457 156.791 20.0374 159.298 21.6208C161.872 23.2042 163.785 25.2164 165.038 27.6575C166.292 30.0985 167.117 32.7045 167.512 35.4755C167.908 38.2464 168.106 40.8194 168.106 43.1945V43.8873H134.954L135.053 41.2153H160.585C160.585 36.9269 160.189 33.3643 159.397 30.5274C158.672 27.6245 157.451 25.4803 155.736 24.0948C154.021 22.6434 151.777 21.9176 149.006 21.9176C145.906 21.9176 143.399 22.7753 141.485 24.4907C139.572 26.14 138.154 28.5151 137.23 31.6159C136.306 34.7168 135.778 38.4113 135.647 42.6997C135.581 45.4047 135.713 48.0767 136.042 50.7156C136.438 53.3546 137.164 55.7627 138.22 57.9399C139.275 60.1171 140.793 61.8654 142.772 63.1849C144.751 64.5044 147.324 65.1641 150.491 65.1641C153.658 65.1641 156.231 64.5374 158.21 63.2838C160.255 62.0303 161.806 60.5129 162.861 58.7316C163.983 56.9503 164.774 55.2679 165.236 53.6845L167.71 54.4762C167.051 56.7853 166.028 58.9625 164.642 61.0077C163.257 63.0529 161.311 64.7023 158.804 65.9558C156.297 67.2093 152.998 67.8361 148.907 67.8361ZM206.602 67.6382C205.679 67.6382 204.788 67.4732 203.93 67.1434C203.073 66.8135 202.38 66.0548 201.852 64.8672C201.324 63.6137 201.061 61.6675 201.061 59.0285V33.0014C201.061 29.5048 200.401 26.7998 199.081 24.8865C197.762 22.9073 195.453 21.9176 192.154 21.9176C190.307 21.9176 188.591 22.1815 187.008 22.7093C185.49 23.2371 184.237 23.8639 183.247 24.5896C182.324 25.3153 181.862 25.9751 181.862 26.5689C181.862 27.0307 182.126 27.4265 182.654 27.7564C183.181 28.0203 183.676 28.4162 184.138 28.944C184.666 29.4718 184.93 30.3294 184.93 31.517C184.93 32.7705 184.567 33.7931 183.841 34.5848C183.181 35.3105 182.192 35.6734 180.872 35.6734C179.487 35.6734 178.398 35.2446 177.606 34.3869C176.815 33.4632 176.419 32.2097 176.419 30.6263C176.419 28.779 176.98 26.9977 178.101 25.2824C179.223 23.567 181.037 22.1486 183.544 21.027C186.051 19.8394 189.35 19.2457 193.44 19.2457C197.993 19.2457 201.489 20.2023 203.93 22.1156C206.371 24.0288 207.592 27.4925 207.592 32.5066V56.9503C207.592 59.5893 207.856 61.3706 208.384 62.2942C208.978 63.2179 209.901 63.6797 211.155 63.6797C211.748 63.6797 212.243 63.6137 212.639 63.4818C213.035 63.3498 213.464 63.2179 213.926 63.0859L214.519 65.3621C213.926 65.6919 213.002 66.1537 211.748 66.7475C210.561 67.3413 208.846 67.6382 206.602 67.6382ZM186.216 67.8361C182.654 67.8361 179.718 67.0444 177.409 65.461C175.099 63.8116 173.945 61.2716 173.945 57.8409C173.945 54.6741 175.033 51.7712 177.211 49.1323C179.388 46.4273 182.687 44.1182 187.107 42.2049C191.527 40.2916 197.069 38.9721 203.733 38.2464V40.8194C196.277 42.0729 190.702 43.9862 187.008 46.5592C183.313 49.0663 181.466 52.2661 181.466 56.1586C181.466 58.6656 182.159 60.5129 183.544 61.7005C184.996 62.888 186.942 63.4818 189.383 63.4818C191.296 63.4818 193.078 63.1519 194.727 62.4921C196.376 61.8324 197.927 60.9747 199.378 59.9191C200.83 58.8635 202.248 57.7749 203.634 56.6534V59.3254C201.588 61.1727 199.675 62.7231 197.894 63.9766C196.112 65.2301 194.298 66.1867 192.451 66.8465C190.604 67.5062 188.525 67.8361 186.216 67.8361ZM224.867 67.5392C223.614 67.5392 222.525 67.1104 221.601 66.2527C220.744 65.3291 220.315 64.2405 220.315 62.987C220.315 61.7334 220.744 60.6449 221.601 59.7212C222.525 58.7976 223.614 58.3357 224.867 58.3357C226.187 58.3357 227.275 58.7976 228.133 59.7212C228.991 60.6449 229.419 61.7334 229.419 62.987C229.419 64.2405 228.991 65.3291 228.133 66.2527C227.275 67.1104 226.187 67.5392 224.867 67.5392Z" fill="#6C6A63"/>
</svg>
