<svg width="271" height="87" viewBox="0 0 271 87" fill="none" xmlns="http://www.w3.org/2000/svg">
<path d="M0.136125 79.2863V1.89784H14.7825V4.66878H5.67801V76.5153H14.7825V79.2863H0.136125ZM18.4457 87.0053V84.3334C20.6888 84.3334 22.3052 84.2014 23.2948 83.9375C24.2844 83.7396 24.8782 83.2448 25.0761 82.4531C25.34 81.6614 25.472 80.4408 25.472 78.7915V29.0135C25.472 27.2981 25.2741 26.1766 24.8782 25.6488C24.4824 25.121 23.6907 24.8571 22.5031 24.8571H18.8415V22.1851L29.1336 20.4038H31.8056V24.7581H32.0035V78.7915C32.0035 80.4408 32.1354 81.6614 32.3993 82.4531C32.6632 83.2448 33.29 83.7396 34.2796 83.9375C35.2692 84.2014 36.8526 84.3334 39.0298 84.3334V87.0053H18.4457ZM45.1655 68.4004C41.8667 68.4004 39.1288 67.9056 36.9516 66.916C34.7744 65.8604 32.9931 64.6069 31.6076 63.1554C30.2222 61.704 29.0676 60.3845 28.144 59.197V54.4468C28.8037 55.7003 29.6284 56.9868 30.618 58.3063C31.6076 59.6258 32.7622 60.8793 34.0817 62.0669C35.4012 63.1884 36.8856 64.1121 38.535 64.8378C40.2503 65.4975 42.1306 65.8274 44.1758 65.8274C48.2003 65.8274 51.3341 64.1451 53.5773 60.7803C55.8864 57.4156 57.0409 51.7748 57.0409 43.8578C57.0409 37.3923 56.1173 32.2133 54.27 28.3207C52.4227 24.4282 49.2559 22.482 44.7696 22.482C42.1966 22.482 39.8545 23.0428 37.7433 24.1643C35.6981 25.2199 33.9498 26.4075 32.4983 27.727C31.1128 29.0465 30.1232 30.0031 29.5294 30.5969V27.0342C29.9253 26.6384 30.783 25.8467 32.1025 24.6591C33.422 23.4716 35.2692 22.383 37.6443 21.3934C40.0194 20.3378 42.9553 19.81 46.452 19.81C52.5217 19.81 57.0409 21.7892 60.0098 25.7477C63.0446 29.7062 64.5621 35.545 64.5621 43.264C64.5621 49.2677 63.7044 54.1169 61.989 57.8115C60.3397 61.5061 58.0306 64.211 55.0617 65.9264C52.1588 67.5758 48.8601 68.4004 45.1655 68.4004ZM69.1986 67.2129V64.5409C71.4417 64.5409 73.0581 64.4419 74.0477 64.244C75.0374 63.9801 75.6311 63.4523 75.8291 62.6606C76.093 61.8689 76.2249 60.6484 76.2249 58.999V29.0135C76.2249 27.2981 76.027 26.1766 75.6311 25.6488C75.2353 25.121 74.4436 24.8571 73.256 24.8571H69.5944V22.1851L80.0844 20.4038H82.7564V58.999C82.7564 60.6484 82.8884 61.8689 83.1523 62.6606C83.4162 63.4523 84.0429 63.9801 85.0325 64.244C86.0222 64.4419 87.6056 64.5409 89.7827 64.5409V67.2129H69.1986ZM79.2927 10.4086C77.8413 10.4086 76.6537 9.94677 75.7301 9.02312C74.8724 8.09947 74.4436 6.9779 74.4436 5.65841C74.4436 4.20696 74.8724 3.01941 75.7301 2.09577C76.6537 1.17212 77.8413 0.710295 79.2927 0.710295C80.2824 0.710295 81.14 0.941208 81.8658 1.40303C82.5915 1.79888 83.1523 2.35967 83.5481 3.08539C83.944 3.81111 84.1419 4.66878 84.1419 5.65841C84.0759 6.9779 83.6141 8.09947 82.7564 9.02312C81.8987 9.94677 80.7442 10.4086 79.2927 10.4086ZM122.543 67.2129V64.5409C124.786 64.5409 126.37 64.4419 127.293 64.244C128.283 63.9801 128.91 63.4523 129.174 62.6606C129.437 61.8689 129.569 60.6484 129.569 58.999V34.8523C129.569 32.939 129.273 31.1247 128.679 29.4093C128.151 27.694 127.194 26.3085 125.809 25.2529C124.423 24.1313 122.477 23.5706 119.97 23.5706C116.539 23.5706 113.834 24.5932 111.855 26.6384C109.876 28.6176 108.029 30.9927 106.313 33.7637V29.5083C107.633 27.3971 109.018 25.6158 110.47 24.1643C111.987 22.7129 113.702 21.6243 115.616 20.8986C117.595 20.1729 119.937 19.81 122.642 19.81C127.326 19.81 130.724 20.9646 132.835 23.2737C135.012 25.5168 136.101 29.0795 136.101 33.9616V58.999C136.101 60.6484 136.2 61.8689 136.398 62.6606C136.662 63.4523 137.288 63.9801 138.278 64.244C139.268 64.4419 140.884 64.5409 143.127 64.5409V67.2129H122.543ZM93.844 67.2129V64.5409C96.0872 64.5409 97.7036 64.4419 98.6932 64.244C99.6828 63.9801 100.277 63.4523 100.475 62.6606C100.738 61.8689 100.87 60.6484 100.87 58.999V29.0135C100.87 27.2981 100.672 26.1766 100.277 25.6488C99.8807 25.121 99.089 24.8571 97.9015 24.8571H94.2399V22.1851L104.433 20.4038H107.105V28.1228H107.402V58.999C107.402 60.6484 107.534 61.8689 107.798 62.6606C108.062 63.4523 108.688 63.9801 109.678 64.244C110.668 64.4419 112.251 64.5409 114.428 64.5409V67.2129H93.844ZM166.364 68.4004C159.041 68.4004 153.73 66.2563 150.431 61.9679C147.198 57.6795 145.582 51.9397 145.582 44.7485C145.582 39.8004 146.341 35.446 147.858 31.6855C149.375 27.9249 151.685 25.022 154.785 22.9768C157.886 20.8656 161.812 19.81 166.562 19.81C170.85 19.81 174.248 20.6017 176.755 22.1851C179.328 23.7685 181.241 25.7807 182.495 28.2218C183.748 30.6629 184.573 33.2689 184.969 36.0398C185.365 38.8107 185.563 41.3838 185.563 43.7589V44.4516H152.41L152.509 41.7796H178.042C178.042 37.4912 177.646 33.9286 176.854 31.0917C176.128 28.1888 174.908 26.0446 173.192 24.6591C171.477 23.2077 169.234 22.482 166.463 22.482C163.362 22.482 160.855 23.3397 158.942 25.055C157.029 26.7044 155.61 29.0795 154.686 32.1803C153.763 35.2811 153.235 38.9757 153.103 43.264C153.037 45.969 153.169 48.641 153.499 51.28C153.895 53.919 154.62 56.327 155.676 58.5042C156.732 60.6814 158.249 62.4297 160.228 63.7492C162.208 65.0687 164.781 65.7285 167.947 65.7285C171.114 65.7285 173.687 65.1017 175.666 63.8482C177.712 62.5947 179.262 61.0772 180.318 59.2959C181.439 57.5146 182.231 55.8322 182.693 54.2488L185.167 55.0405C184.507 57.3497 183.484 59.5268 182.099 61.572C180.714 63.6173 178.767 65.2666 176.26 66.5202C173.753 67.7737 170.454 68.4004 166.364 68.4004ZM224.059 68.2025C223.135 68.2025 222.245 68.0376 221.387 67.7077C220.529 67.3778 219.837 66.6191 219.309 65.4316C218.781 64.1781 218.517 62.2318 218.517 59.5928V33.5657C218.517 30.0691 217.857 27.3641 216.538 25.4508C215.218 23.4716 212.909 22.482 209.61 22.482C207.763 22.482 206.048 22.7459 204.464 23.2737C202.947 23.8015 201.693 24.4282 200.704 25.154C199.78 25.8797 199.318 26.5394 199.318 27.1332C199.318 27.595 199.582 27.9909 200.11 28.3207C200.638 28.5846 201.133 28.9805 201.595 29.5083C202.122 30.0361 202.386 30.8938 202.386 32.0813C202.386 33.3348 202.023 34.3574 201.298 35.1491C200.638 35.8749 199.648 36.2377 198.329 36.2377C196.943 36.2377 195.855 35.8089 195.063 34.9512C194.271 34.0276 193.875 32.774 193.875 31.1907C193.875 29.3434 194.436 27.562 195.558 25.8467C196.679 24.1313 198.494 22.7129 201.001 21.5913C203.508 20.4038 206.807 19.81 210.897 19.81C215.449 19.81 218.946 20.7666 221.387 22.6799C223.828 24.5932 225.049 28.0568 225.049 33.0709V57.5146C225.049 60.1536 225.312 61.9349 225.84 62.8586C226.434 63.7822 227.358 64.244 228.611 64.244C229.205 64.244 229.7 64.1781 230.096 64.0461C230.491 63.9142 230.92 63.7822 231.382 63.6503L231.976 65.9264C231.382 66.2563 230.459 66.7181 229.205 67.3119C228.017 67.9056 226.302 68.2025 224.059 68.2025ZM203.673 68.4004C200.11 68.4004 197.174 67.6087 194.865 66.0253C192.556 64.376 191.401 61.8359 191.401 58.4053C191.401 55.2385 192.49 52.3356 194.667 49.6966C196.844 46.9916 200.143 44.6825 204.563 42.7692C208.984 40.856 214.526 39.5365 221.189 38.8107V41.3838C213.734 42.6373 208.159 44.5505 204.464 47.1236C200.77 49.6306 198.923 52.8304 198.923 56.7229C198.923 59.2299 199.615 61.0772 201.001 62.2648C202.452 63.4523 204.398 64.0461 206.84 64.0461C208.753 64.0461 210.534 63.7162 212.183 63.0565C213.833 62.3967 215.383 61.5391 216.835 60.4835C218.286 59.4279 219.705 58.3393 221.09 57.2177V59.8897C219.045 61.737 217.132 63.2874 215.35 64.5409C213.569 65.7944 211.755 66.7511 209.907 67.4108C208.06 68.0706 205.982 68.4004 203.673 68.4004ZM242.423 38.019C241.169 38.019 240.081 37.5902 239.157 36.7325C238.233 35.8749 237.771 34.8193 237.771 33.5657C237.771 32.3782 238.233 31.3226 239.157 30.399C240.081 29.4093 241.169 28.9145 242.423 28.9145C243.742 28.9145 244.798 29.3763 245.589 30.3C246.447 31.2236 246.876 32.3122 246.876 33.5657C246.876 34.8193 246.447 35.8749 245.589 36.7325C244.798 37.5902 243.742 38.019 242.423 38.019ZM242.423 68.1036C241.169 68.1036 240.081 67.6747 239.157 66.817C238.233 65.8934 237.771 64.8048 237.771 63.5513C237.771 62.2978 238.233 61.2092 239.157 60.2855C240.081 59.3619 241.169 58.9001 242.423 58.9001C243.742 58.9001 244.798 59.3619 245.589 60.2855C246.447 61.2092 246.876 62.2978 246.876 63.5513C246.876 64.8048 246.447 65.8934 245.589 66.817C244.798 67.6747 243.742 68.1036 242.423 68.1036ZM255.656 79.2863V76.5153H264.76V4.66878H255.656V1.89784H270.302V79.2863H255.656Z" fill="#6C6A63"/>
</svg>
